<?xml version="1.0" standalone="no"?>
<!DOCTYPE svg PUBLIC "-//W3C//DTD SVG 20010904//EN"
 "http://www.w3.org/TR/2001/REC-SVG-20010904/DTD/svg10.dtd">
<svg version="1.0" xmlns="http://www.w3.org/2000/svg"
 width="1280.000000pt" height="1280.000000pt" viewBox="0 0 1280.000000 1280.000000"
 preserveAspectRatio="xMidYMid meet">
<metadata>
Created by potrace 1.15, written by Peter Selinger 2001-2017
</metadata>
<g transform="translate(0.000000,1280.000000) scale(0.100000,-0.100000)"
fill="#000000" stroke="none">
<path d="M5140 9029 c-714 -52 -1333 -554 -1531 -1241 -56 -195 -64 -255 -63
-498 0 -195 3 -239 23 -330 65 -306 192 -569 383 -795 42 -49 610 -623 1262
-1275 l1186 -1185 1224 1225 c778 779 1245 1254 1283 1305 159 214 260 432
317 686 104 470 9 962 -264 1363 -80 118 -217 268 -324 355 -485 396 -1138
504 -1724 285 -163 -61 -292 -132 -439 -242 l-72 -54 -43 35 c-185 150 -474
284 -728 337 -80 16 -341 43 -375 39 -5 -1 -57 -5 -115 -10z m460 -302 c276
-65 499 -186 712 -387 l93 -87 97 93 c207 198 440 323 718 386 91 20 132 23
305 23 223 0 292 -10 474 -71 428 -142 773 -487 915 -914 54 -164 67 -239 73
-425 4 -143 2 -189 -15 -290 -37 -215 -111 -402 -233 -586 -55 -83 -193 -226
-1200 -1234 l-1139 -1140 -1111 1110 c-787 787 -1131 1138 -1182 1205 -151
198 -247 434 -282 690 -108 788 433 1516 1222 1645 138 23 418 13 553 -18z"/>
</g>
</svg>
